<svg xmlns="http://www.w3.org/2000/svg" viewBox="0 0 105.3 109.33"><defs><style>.cls-1{fill:#1d1d1b;}</style></defs><title>Shape-5</title><g id="Layer_2" data-name="Layer 2"><g id="Layer_1-2" data-name="Layer 1"><path id="Shape-5" class="cls-1" d="M52.84,109.33c-1.46,0-3.18-3.76-5.64-9.46-1.53-3.58-3.28-7.64-4.27-8-.28-.1-.77-.67-1.73-1.85a12.59,12.59,0,0,0-1.39-1.57c-.32-.12-1.93.77-3,1.37-2.13,1.18-3.12,1.67-3.59,1.39a11.33,11.33,0,0,0-2.72.11c-2,.2-2.93.26-3.25,0s-.62-1.31-1.07-3.46a12.64,12.64,0,0,0-.8-2.94c-.18-.16-.78-.85-1.6-1.82-.48-.55-.93-1.08-1.05-1.2a16.72,16.72,0,0,0-2-1,11.3,11.3,0,0,1-2.42-1.29c-.48-.57.27-2.13,1.54-4.63.73-1.43,1.82-3.59,1.59-4a12.58,12.58,0,0,0-2.63-1.15c-2-.72-2.9-1.1-3.09-1.49s-2-1.29-3.47-2c-2.4-1.21-3.88-2-4.07-2.57-.12-.38.23-1.17,1.05-2.89a11.32,11.32,0,0,0,1-2.4c-.14-.66-2.54-2.52-4.66-4.16C2.09,51.63,0,49.94,0,49c0-.68,1.58-1.39,5.17-2.85C7,45.4,9.63,44.3,9.77,43.88a20.29,20.29,0,0,0-1.88-3.65c-1.51-2.61-2.15-3.81-2-4.26.24-.88,2.55-.84,7.77-.52,2.69.16,6.76.41,7-.12s-1.83-4.54-3.56-7.66c-2.95-5.29-4.27-7.87-3.62-8.61s3.08.13,8.22,2c2.87,1,6.8,2.48,7.32,2.08a16.5,16.5,0,0,0,.07-3.89c-.11-3-.11-4.23.33-4.49a17.66,17.66,0,0,0,1.16-3.55c.73-2.69,1.1-3.89,1.51-4.08.69-.32,2.24,1,5.63,4,1.77,1.57,4.44,3.93,4.93,3.8a15.28,15.28,0,0,1,1.84,0c.63,0,1.42,0,1.54,0,.64-.14,2.21-4.09,3.36-7C51.53,2.52,52.64,0,53.59,0a13.66,13.66,0,0,1,3.19,1.58,23.6,23.6,0,0,0,2.63,1.36L60.53,3c2.1.16,4.18.32,4.51.37C66,3.54,66.3,6,66.79,11.25c.27,2.89.64,6.86,1.22,7.08s3.24-1.65,5.09-2.85c3.58-2.33,5.22-3.33,5.83-3,.91.54.12,3.72-1.23,8.86-.83,3.15-2,7.45-1.45,8a13.8,13.8,0,0,0,1.61.07c1.44,0,1.85.05,2,.23a15.85,15.85,0,0,0,3.67-.1c2.8-.23,4-.29,4.26.1s3.85.5,6.42.54c4.69.08,6.94.19,7.29.89.43.85-1.41,2.86-5.42,6.92-2.26,2.29-5.36,5.44-5.2,6.14.16.37,2.55,1.24,4.13,1.82,3.19,1.16,4.6,1.74,4.66,2.34a17.4,17.4,0,0,0,2.63,2.6c2.08,1.87,3,2.73,3,3.2,0,.95-2.83,1.92-8.82,3.77-3.26,1-7.73,2.38-7.87,3a16.42,16.42,0,0,0,1.91,2.23c1.71,1.84,2.16,2.39,2,2.75s2.14,3,3.76,4.84c3,3.37,4.23,4.92,3.93,5.53-.19.37-1.17.64-4.24,1.33a21.14,21.14,0,0,0-3.72,1c-.4.66-2.59.14-7.47-1.22-2.51-.7-6.29-1.76-6.71-1.41-.64.72,2,6.37,4.17,10.9,3.54,7.5,5.09,11.1,4,11.75-.42.24-5,2.73-5.46,2.94-.24.12-1.59.58-3.48,1.22-1.09.36-2.11.7-2.29.78-.74.31-2.49-1.31-6.34-5.09-2.12-2.08-5-4.93-5.59-4.83a18.74,18.74,0,0,0-1.73,3.76c-1.28,3.2-1.76,4.2-2.23,4.25s-1.8,2.14-2.84,3.62C54.3,108.08,53.37,109.33,52.84,109.33Z"/></g></g></svg>