<svg xmlns="http://www.w3.org/2000/svg" viewBox="0 0 114.06 120.5"><defs><style>.cls-1{fill:#1d1d1b;}</style></defs><title>Shape-2</title><g id="Layer_2" data-name="Layer 2"><g id="Layer_1-2" data-name="Layer 1"><path id="Shape-2" class="cls-1" d="M58.35,0c.24,0,6.93,4.59,7.17,4.61s7,.49,7.24.52c.66.1-1.55,22.14-1,22.38S84.8,16,85.23,16.24c.62.37-10,22.43-9.44,22.94.09.09,4.84-.5,4.93-.4s10.66-2.43,10.85-2.17c.33.44,19-2.48,19.28-2S91.56,48.87,91.72,49.57c.09.38,13.44,2.69,13.47,3.1s8.87,6.16,8.87,6.48c0,.68-25.86,4.25-26,4.88,0,.23,7,5.76,6.89,6-.14.45,14.09,12.24,13.89,12.66-.13.26-11.33,1.29-11.48,1.53-.29.46-19.43-8.48-19.79-8.08-.62.69,20.37,30.46,19.56,30.93l-7.2,3.88c-.17.08-7.49,2.39-7.67,2.46C81.74,113.61,68.55,95.85,68,96c-.32.07-3.21,12.34-3.53,12.37s-6.59,12.17-6.94,12.16c-1.07,0-5.8-25.94-6.75-26.28-.2-.07-3.07-4.69-3.26-4.78s-7.31,6.12-7.62,5.93S32.66,97.15,32.44,97s-.57-8.24-.8-8.45-3-3.64-3.13-3.76-5.6-2.06-5.75-2.23c-.32-.37,7.84-9.78,7.58-10.2-.15-.26-7.74-1.6-7.86-1.87S11.93,67,11.8,66.62s3.93-5.87,3.87-6.13C15.53,59.84,0,52,0,51.34c0-.45,15.24-3.69,15.31-4.12s-7-9.47-6.87-9.78c.16-.62,21.34,4.84,21.63,4.28S14.47,21.61,15,21.07,35,32,35.52,31.6c.27-.2-2.14-11.58-1.85-11.75s1.56-10.8,1.84-10.93C36,8.71,47.41,23.11,47.92,23c.12,0,4.29.17,4.4.15C53,23,57.66,0,58.35,0Z"/></g></g></svg>