<svg xmlns="http://www.w3.org/2000/svg" viewBox="0 0 108.42 113.25"><defs><style>.cls-1{fill:#1d1d1b;}</style></defs><title>Shape-4</title><g id="Layer_2" data-name="Layer 2"><g id="Layer_1-2" data-name="Layer 1"><path id="Shape-4" class="cls-1" d="M54.5,113.25c-1.2,0-2.53-3.55-5.07-11.07-1.37-4-3.07-9.06-3.81-9.33-.25-.09-.63-.56-1.79-2.12A20,20,0,0,0,42.42,89a21.09,21.09,0,0,0-3.09,1.88c-2.64,1.75-3.41,2.19-3.83,1.94a20.72,20.72,0,0,0-2.93.35c-2.5.4-3.27.48-3.55.27s-.48-1.07-.9-3.86a21.07,21.07,0,0,0-.63-3.25c-.14-.11-.75-.84-1.68-1.93-.5-.6-1-1.22-1.13-1.32a23.69,23.69,0,0,0-2.2-1,11.19,11.19,0,0,1-2.67-1.28c-.43-.49.29-1.76,2.3-5,.94-1.51,2.36-3.78,2.28-4.21a24.39,24.39,0,0,0-2.92-1c-2.57-.77-3.34-1-3.5-1.38A23.43,23.43,0,0,0,14,67.31c-3.18-1.37-4.49-2-4.65-2.47-.11-.33.2-1,1.37-3.08A17.38,17.38,0,0,0,12,59.23c-.14-.48-3.23-2.56-5.48-4.07C2.09,52.16,0,50.66,0,49.87c0-.6,1.32-1.12,6.16-2.74a34.62,34.62,0,0,0,5.44-2.07,36.52,36.52,0,0,0-2.33-3.9c-2.1-3.29-2.65-4.24-2.55-4.63.21-.76,2.21-.61,9,.29,3.22.43,7.63,1,8.12.66.1-.61-2.76-5.06-4.86-8.3-4.27-6.63-5.52-8.79-5-9.41s2.51.18,9.15,3.1c3.09,1.35,7.28,3.2,8.05,3.11a29.76,29.76,0,0,0-.27-4.39c-.41-4.08-.42-4.89,0-5.12a35.71,35.71,0,0,0,1-4C32.71,8.69,33,7.9,33.3,7.74c.58-.28,1.87.9,6,5.06,2,2,4.69,4.73,5.23,4.8a16.29,16.29,0,0,1,2,0c.69,0,1.57,0,1.69,0,.51-.31,2-4.9,3.09-8.25C53.63,2.22,54.48,0,55.28,0c.29,0,1,.43,3.46,1.88A32.09,32.09,0,0,0,61.57,3.5l1.29.1c2.32.17,4.61.33,4.87.37.8.13,1,2.18,1.11,9.19.07,3.23.16,7.63.58,8.22.61-.11,3.4-2.18,5.45-3.71,4.42-3.3,5.79-4.21,6.31-3.89.72.43.08,2.74-2.37,10-1.17,3.42-2.75,8.07-2.55,8.87.29,0,1.14,0,1.79,0,1.84-.06,2.11-.05,2.28.13a33.29,33.29,0,0,0,4.09-.46c3.8-.55,4.56-.59,4.81-.26.43.3,4.39.12,7.28,0,6.16-.28,8-.27,8.3.32s-1.31,2.37-6.88,7.29C95.24,42,91.57,45.24,91.38,46a30.54,30.54,0,0,0,4.83,1.63c4.29,1.26,5.46,1.68,5.51,2.21a33.18,33.18,0,0,0,3.12,2.68c2.82,2.27,3.58,2.95,3.58,3.35,0,.81-2.36,1.51-10.47,3.49-3.84.94-8.59,2.1-9.28,2.66A28,28,0,0,0,91,64.38c2.34,2.25,2.67,2.64,2.57,3,.09.46,2.78,3.19,4.75,5.18,4.41,4.46,5.25,5.46,5,6-.16.33-.94.53-4.89,1.23a31.65,31.65,0,0,0-4.28.9c-.32.53-2.09,0-8.45-2.17-2.91-1-6.87-2.38-7.57-2.28-.19,1,3.39,7.45,6,12.2C89.45,98,91,101.05,90,101.59c-.29.18-5.66,3.07-6,3.26-.2.1-1.66.58-3.86,1.3-1.18.4-2.41.8-2.55.86-.62.26-2.08-1.2-6.79-6.38-2.19-2.41-5.17-5.69-5.91-6A39.06,39.06,0,0,0,63.24,99c-1.43,4.24-1.76,5-2.2,5a45,45,0,0,0-2.91,4.31C55.55,112.43,54.94,113.25,54.5,113.25ZM61,103.46h0ZM101.12,49.9Z"/></g></g></svg>