<svg xmlns="http://www.w3.org/2000/svg" viewBox="0 0 99.06 101.47"><defs><style>.cls-1{fill:#1d1d1b;}</style></defs><title>Shape-7</title><g id="Layer_2" data-name="Layer 2"><g id="Layer_1-2" data-name="Layer 1"><path id="Shape-7" class="cls-1" d="M49.52,101.47c-2.12,0-4.55-3.2-6.9-6.28-1.87-2.44-3.63-4.75-5-5.27a7.35,7.35,0,0,1-1.65-1.35,7.9,7.9,0,0,0-1.37-1.17,5.86,5.86,0,0,0-2.75.36c-1.29.34-2.51.67-3.12.3a7.48,7.48,0,0,0-2.31-.36,6.63,6.63,0,0,1-2.67-.48,7.53,7.53,0,0,1-1.41-2.69,8.22,8.22,0,0,0-1.14-2.32c-.27-.25-.91-.95-1.47-1.57-.36-.41-.7-.79-.87-1a11.48,11.48,0,0,0-1.62-1.05,9.87,9.87,0,0,1-1.93-1.3c-.61-.72-.31-2.31,0-4,.28-1.41.56-2.88.16-3.53a7.07,7.07,0,0,0-2-1.43,6.57,6.57,0,0,1-2.28-1.72,10,10,0,0,0-2.51-2.27c-1.32-1-2.68-2-2.92-2.8a5.91,5.91,0,0,1,.4-2.52,6.71,6.71,0,0,0,.4-2.19c-.21-1-1.56-2.54-3-4.2C1.8,50.66,0,48.56,0,47.2c0-.89,1.55-2,3.19-3.1,1.37-1,2.78-1.94,2.89-2.6a10.6,10.6,0,0,0-1-3.11c-.6-1.51-1.16-2.93-1-3.55.33-1.2,2.77-1.67,5.35-2.16,2.19-.42,4.45-.85,4.89-1.72s-.27-3.68-1-6.26c-.91-3.09-1.78-6-.87-7s3.55-.6,6.42-.22c2.42.32,4.92.65,5.74,0,.4-.3.63-1.67.83-2.89.25-1.49.48-2.9,1.06-3.24A8.19,8.19,0,0,0,28,8.79c.61-1.35,1.2-2.62,1.75-2.88.91-.42,2.85.67,4.91,1.82,1.75,1,3.56,2,4.37,1.8a9.56,9.56,0,0,1,1.46-.11c.52,0,1.06-.05,1.24-.09,1-.22,2.44-2.35,3.83-4.4C47.25,2.39,48.87,0,50.22,0a10.71,10.71,0,0,1,2.67,1,12.46,12.46,0,0,0,2.23.85l.64,0c1.17.1,3.36.28,3.91.36,1.28.2,2.14,2.63,3,5.21.76,2.16,1.55,4.39,2.48,4.75.74.28,2.57-.43,4.35-1.11,2.08-.81,4-1.57,4.88-1.07,1.21.71,1.15,3.61,1.09,6.68,0,2.57-.1,5.23.7,6a4.3,4.3,0,0,0,1.27.33,3.18,3.18,0,0,1,1.48.43c.32.35,1.64.5,2.8.63,1.43.16,2.78.31,3.16.81.52.69,2.64,1.16,4.68,1.62,2.47.55,4.8,1.07,5.29,2,.6,1.2-.89,3.64-2.47,6.22C91.08,37,89.7,39.26,90,40.36c.14.58,1.43,1.4,2.68,2.2,1.49.94,2.9,1.84,3,2.63a8.4,8.4,0,0,0,1.63,2.44c.94,1.16,1.83,2.26,1.83,2.88,0,1.33-2.68,2.81-5.51,4.38-2.33,1.3-4.74,2.63-5,3.62-.07.32.51,1.25,1,2,.73,1.15,1.16,1.88,1,2.3-.22.7.79,2.47,1.78,4.18,1.13,2,2.19,3.82,1.79,4.64-.25.5-1.56,1-3,1.57a8.55,8.55,0,0,0-2.63,1.3c-.55.9-2.94.76-5.46.62-2.17-.12-4.42-.25-5,.37-1,1.1-.23,4.71.5,8.21.86,4.1,1.66,8,.11,8.87-.57.34-3.68,2-4.29,2.32-.36.18-1.65.64-2.78,1L70,96.57c-1,.42-3.16-1-5.46-2.5-2-1.29-4-2.62-4.89-2.44-.46.1-1.24,1.34-1.94,2.43-.85,1.35-1.66,2.62-2.3,2.69S53.71,98,52.69,99C51.42,100.27,50.22,101.48,49.52,101.47Z"/></g></g></svg>