<svg xmlns="http://www.w3.org/2000/svg" viewBox="0 0 95.93 97.54"><defs><style>.cls-1{fill:#1d1d1b;}</style></defs><title>Shape-8</title><g id="Layer_2" data-name="Layer 2"><g id="Layer_1-2" data-name="Layer 1"><path id="Shape-8" class="cls-1" d="M47.86,97.54c-2.47,0-5.16-2.42-7.75-4.75-1.88-1.68-3.66-3.27-5.22-3.84a7.45,7.45,0,0,1-1.62-1.11,7.76,7.76,0,0,0-1.36-1,6.37,6.37,0,0,0-2.58-.14,5.74,5.74,0,0,1-2.93-.25,7.4,7.4,0,0,0-2.07-.59,7.09,7.09,0,0,1-2.4-.74,8.09,8.09,0,0,1-1.6-2.32,8.53,8.53,0,0,0-1.3-2c-.32-.29-.91-.92-1.43-1.48-.3-.32-.57-.62-.75-.8a11.15,11.15,0,0,0-1.4-1,10.31,10.31,0,0,1-1.7-1.32c-.69-.81-.73-2.28-.78-3.71a7.33,7.33,0,0,0-.53-3.27,7.85,7.85,0,0,0-1.65-1.54,7,7,0,0,1-1.9-1.85,10.45,10.45,0,0,0-2-2.35,9.6,9.6,0,0,1-2.37-3,6.26,6.26,0,0,1,.08-2.37,6.84,6.84,0,0,0,.11-2A15.89,15.89,0,0,0,2.57,52C1.3,50,0,47.88,0,46.31c0-1,1.12-2.14,2.21-3.26.93-1,1.89-2,2-2.75a9.4,9.4,0,0,0-.48-2.8,8.3,8.3,0,0,1-.48-3.22c.36-1.34,2.29-2.2,4.16-3,1.61-.72,3.28-1.47,3.8-2.47.59-1.17.38-3.37.18-5.5-.24-2.53-.49-5.15.54-6.33s3.29-1.23,5.57-1.37c1.94-.12,3.95-.25,4.89-1a5.83,5.83,0,0,0,1.2-2.37C24,11.14,24.42,10,25,9.62a7.23,7.23,0,0,0,1.6-2,6.64,6.64,0,0,1,1.88-2.28c1-.48,2.84.13,4.59.72,1.53.52,3.11,1,4.06.8a11,11,0,0,1,1.28-.14c.43,0,.87-.08,1.07-.12,1.16-.25,2.54-1.64,4-3.1C45.24,1.76,47,0,48.53,0A10.24,10.24,0,0,1,51,.68a10.18,10.18,0,0,0,2,.59l.16,0c.94.08,3.12.26,3.85.37,1.43.22,2.62,2.1,3.76,3.92,1,1.54,2,3.13,3.06,3.56.85.32,2.42,0,3.93-.26,1.73-.32,3.52-.67,4.45-.12,1.36.81,1.84,3.27,2.3,5.65.39,2,.8,4.09,1.73,5a3.31,3.31,0,0,0,1.08.45,3.42,3.42,0,0,1,1.22.54,6,6,0,0,0,2.36,1,5.61,5.61,0,0,1,2.63,1.18c.6.8,2.21,1.47,3.78,2.12,1.85.77,3.77,1.57,4.31,2.66.68,1.36-.16,3.69-1,5.95-.7,1.92-1.43,3.92-1.13,5.18a6.6,6.6,0,0,0,2,2.37c1,.95,2,1.93,2.13,2.8A7.82,7.82,0,0,0,94.69,46a7,7,0,0,1,1.24,2.75c0,1.49-2,3.14-3.87,4.74-1.59,1.33-3.23,2.71-3.49,3.86a4.21,4.21,0,0,0,.52,1.88,3.84,3.84,0,0,1,.52,2.09c-.26.82.27,2.34.79,3.8.57,1.64,1.17,3.33.72,4.24A6.33,6.33,0,0,1,88.8,71a6.9,6.9,0,0,0-2.08,1.44c-.62,1-2.58,1.28-4.49,1.56-1.68.25-3.42.5-4.07,1.23C77,76.52,77,79.33,76.91,82.06c-.08,3.18-.15,6.47-1.91,7.51-.67.39-3,1.65-3.71,2-.42.22-1.5.62-2.46,1l-1.4.54c-1.11.48-3.12-.37-5.06-1.2-1.71-.72-3.48-1.47-4.5-1.24-.55.12-1.3.95-2,1.75s-1.66,1.83-2.35,1.91a7.53,7.53,0,0,0-2.6,1.54C49.79,96.69,48.63,97.55,47.86,97.54Z"/></g></g></svg>