<svg xmlns="http://www.w3.org/2000/svg" viewBox="0 0 102.18 105.4"><defs><style>.cls-1{fill:#1d1d1b;}</style></defs><title>Shape-6</title><g id="Layer_2" data-name="Layer 2"><g id="Layer_1-2" data-name="Layer 1"><path id="Shape-6" class="cls-1" d="M51.18,105.4c-1.83,0-4-3.83-6.23-7.86-1.71-3.05-3.48-6.2-4.7-6.64a7.41,7.41,0,0,1-1.69-1.6,8.82,8.82,0,0,0-1.38-1.37c-.41-.18-1.78.39-2.88.86-1.74.73-2.83,1.16-3.35.84a8.3,8.3,0,0,0-2.52-.12c-1.59,0-2.58,0-3-.23s-.74-1.36-1.23-3.07a9.44,9.44,0,0,0-1-2.63c-.24-.21-.9-1-1.54-1.7l-1-1.08a12.44,12.44,0,0,0-1.82-1,10.21,10.21,0,0,1-2.17-1.29c-.56-.66.06-2.34.77-4.3.56-1.52,1.19-3.24.88-3.77a8.34,8.34,0,0,0-2.32-1.28c-1.52-.7-2.46-1.16-2.68-1.61a11.72,11.72,0,0,0-3-2.16c-1.68-1-3.26-2-3.49-2.68-.13-.42.19-1.3.73-2.7a7.64,7.64,0,0,0,.69-2.29c-.18-.83-2-2.55-3.83-4.2C2.2,51.32,0,49.28,0,48.09c0-.76,1.58-1.63,4.17-3,1.64-.85,3.67-1.9,3.75-2.43a13.31,13.31,0,0,0-1.41-3.38c-1-2.08-1.65-3.39-1.51-3.9.27-1,2.65-1.18,6.55-1.34,2.63-.1,5.61-.22,6-.93s-1-4.09-2.29-7c-1.91-4.28-3-6.94-2.26-7.81s3.23-.19,7.32.89c2.75.73,5.86,1.56,6.53,1.05.32-.23.4-2.06.46-3.39.1-2.2.19-3.57.69-3.86A11,11,0,0,0,29.28,10c.7-2,1.16-3.26,1.63-3.48.78-.36,2.51.86,5.26,2.9,1.88,1.39,4,3,4.66,2.8a12.42,12.42,0,0,1,1.65-.08c.58,0,1.25,0,1.39-.05.83-.18,2.3-3.11,3.6-5.69,2-3.87,3.32-6.41,4.44-6.4a12.15,12.15,0,0,1,2.93,1.28,15.92,15.92,0,0,0,2.42,1.11l.91.07c1.4.11,3.74.29,4.19.36C63.43,3,64,5.39,64.75,9.35c.51,2.63,1.09,5.62,1.86,5.92.59.22,2.78-.95,4.72-2,2.86-1.54,4.65-2.43,5.35-2,1,.6.64,3.33-.08,7.76-.48,3-1,6.35-.36,7a6.39,6.39,0,0,0,1.44.2c1.07.09,1.57.14,1.74.33s2,.27,3.24.27c2.08,0,3.37,0,3.71.45s3.15.84,5.55,1.08c3.64.37,5.88.65,6.28,1.46.5,1-1.15,3.15-3.94,6.56-1.9,2.33-4.05,5-3.84,5.87.11.46,1.94,1.32,3.41,2,2.33,1.09,3.75,1.8,3.81,2.48a11.55,11.55,0,0,0,2.13,2.52c1.5,1.54,2.41,2.51,2.41,3,0,1.11-2.71,2.28-7.16,4.07-2.92,1.17-6.24,2.51-6.43,3.32A9,9,0,0,0,90,61.8c1.17,1.46,1.67,2.14,1.55,2.53-.18.56,1.45,2.75,2.76,4.51,2,2.7,3.21,4.39,2.86,5.09-.22.44-1.51.83-3.59,1.44a12.28,12.28,0,0,0-3.17,1.16c-.48.76-2.76.4-6.47-.3-2.4-.45-5.4-1-5.85-.51-.82.91.85,5.51,2.33,9.57,2.14,5.9,3.35,9.54,2.06,10.29-.51.3-4.36,2.37-4.87,2.63-.31.16-1.74.65-3.13,1.13-.92.32-1.8.62-2,.71-.84.36-2.78-1.19-5.89-3.79-2.13-1.78-4.57-3.79-5.25-3.64-.35.08-1.21,1.82-1.84,3.1-1,2.11-1.7,3.4-2.26,3.46s-1.72,1.65-2.77,2.94C52.83,104.16,51.78,105.4,51.18,105.4Z"/></g></g></svg>