<svg xmlns="http://www.w3.org/2000/svg" viewBox="0 0 111.54 117.18"><defs><style>.cls-1{fill:#1d1d1b;}</style></defs><title>Shape-3</title><g id="Layer_2" data-name="Layer 2"><g id="Layer_1-2" data-name="Layer 1"><path id="Shape-3" class="cls-1" d="M56.16,117.18c-.94,0-1.91-3-4.53-12.68-1.23-4.56-2.77-10.24-3.36-10.69-.18-.06-.37-.29-1.81-2.35-.47-.69-1.11-1.6-1.36-1.91a34.91,34.91,0,0,0-3.25,2.31c-3.16,2.39-3.69,2.72-4.08,2.49h0c-.22,0-1.9.35-3.13.6-3.06.63-3.59.7-3.85.51s-.38-.8-.74-4.26a31.94,31.94,0,0,0-.48-3.58c-.06,0-.57-.64-1.74-2.05-.52-.63-1.11-1.34-1.19-1.41s-1.39-.59-2.39-1c-2.32-.92-2.79-1.12-2.93-1.29-.36-.42.07-1.16,3.06-5.31a40.72,40.72,0,0,0,2.94-4.38c-.49-.2-2-.58-3.17-.86-3.22-.8-3.77-1-3.91-1.29s-2.65-1.1-4.4-1.76c-4.29-1.59-5.12-2-5.24-2.37s0-.59,1.7-3.27c.59-1,1.39-2.25,1.53-2.63a61.08,61.08,0,0,0-6.28-4C1.7,52.51,0,51.4,0,50.75S.62,50,7.16,48.14c2.47-.7,5.51-1.55,6.24-1.92-.32-.62-1.65-2.55-2.74-4.13-2.91-4.2-3.16-4.67-3.08-5,.18-.63,1.14-.61,10.23,1.09a81,81,0,0,0,9.07,1.43c-.42-1.1-3.51-5.41-6-8.92C15,22.53,14.05,21,14.51,20.47s1.44-.11,10.08,4.2a88.28,88.28,0,0,0,8.77,4.08c0-.75-.35-3.07-.61-4.82-.7-4.71-.74-5.44-.47-5.69a45.29,45.29,0,0,0,.93-4.59c.83-4.72,1-5.16,1.28-5.3.48-.22,1.13.32,6.39,6.15C43.09,17,45.83,20,46.42,20.28c.17,0,.62,0,2.12,0,.68,0,1.5.05,1.79,0,.49-.69,1.82-5.58,2.89-9.52C55.73,1.62,56.29,0,57,0c.23,0,.62.22,3.72,2.19C62,3,63.51,4,63.75,4.07c.06,0,.61,0,1.4.09,2.66.19,5.07.36,5.27.39.65.1.77,1.08.48,10.52a80.67,80.67,0,0,0,0,9.3c.82-.45,3.54-2.68,5.75-4.5,5.69-4.68,6.37-5.1,6.81-4.84.62.37.09,2-3.52,11.08-1.54,3.88-3.45,8.65-3.57,9.78.4,0,1.24-.07,1.89-.12,1.9-.13,2.3-.15,2.47,0A43.84,43.84,0,0,0,85.3,35c4.38-.83,5.06-.91,5.31-.66.64.18,4.81-.21,8.18-.52,8.14-.75,9.09-.71,9.32-.24.31.62-.93,1.77-8.34,7.68-3.22,2.56-7.17,5.72-7.84,6.63.73.31,3.33.94,5.46,1.45,5.45,1.32,6.24,1.59,6.35,2,.27.33,2.13,1.72,3.63,2.83,3.81,2.84,4.17,3.18,4.17,3.52,0,.64-1.2,1-12.13,3.2-4.25.84-9.45,1.87-10.63,2.37.46.48,1.72,1.6,2.68,2.44,2.75,2.43,3.12,2.82,3.1,3.1a73,73,0,0,0,5.73,5.61c5.82,5.41,6.28,6,6.06,6.43-.15.29-.38.38-5.55,1.11-2,.28-4.4.62-4.83.78-.37.38-1.59,0-9.44-3.11-3.26-1.29-7.24-2.88-8.34-3.09.42,1.49,4.49,8.08,7.8,13.43,5.75,9.31,8.25,13.48,8,14.38a.44.44,0,0,1-.22.29c-.24.15-6.32,3.42-6.63,3.57-.14.07-1.23.43-4.25,1.4-1.31.43-2.67.87-2.79.92-.51.21-1.24-.47-7.25-7.67-2.4-2.88-5.34-6.41-6.22-7.13-.32.73-1,3.07-1.57,5-1.49,5.1-1.74,5.7-2.07,5.8-.37.38-1.87,3-3.07,5C56.9,116.73,56.56,117.18,56.16,117.18Zm23.7-7.34h0Z"/></g></g></svg>